<?xml version="1.0" encoding="utf-8"?>
<!-- Generator: Adobe Illustrator 23.0.1, SVG Export Plug-In . SVG Version: 6.00 Build 0)  -->
<svg version="1.1" id="Layer_1" xmlns="http://www.w3.org/2000/svg" xmlns:xlink="http://www.w3.org/1999/xlink" x="0px" y="0px"
	 viewBox="0 0 100 100" style="enable-background:new 0 0 100 100;" xml:space="preserve">
<g>
	<path d="M82.4,39.2c0-0.3-0.1-0.7-0.1-1c1-0.5,2-1.2,2.8-2.2c1.8-2,3-4.8,3.5-7.8c1-6.7-2.1-12.5-6.9-13.2
		c-2.4-0.4-4.9,0.7-6.9,2.9c-0.8,0.9-1.5,1.9-2,3.1C67,16,58.9,13,50,13s-17,3-22.8,8c-0.5-1.1-1.2-2.2-2-3.1
		c-2-2.2-4.5-3.2-6.9-2.9c-4.8,0.7-7.9,6.5-6.9,13.2c0.4,3,1.7,5.8,3.5,7.8c0.8,1,1.8,1.7,2.8,2.2c0,0.3-0.1,0.7-0.1,1
		c-5.3,5.2-8.2,11.4-8.2,18c0,14,13.2,25.8,31,29c0.4,0.5,1,0.9,1.6,0.9h16c0.7,0,1.3-0.3,1.6-0.9c17.8-3.2,31-15,31-29
		C90.6,50.6,87.8,44.4,82.4,39.2z M77.8,20.6c0.6-0.6,1.7-1.6,3-1.6c0.1,0,0.2,0,0.4,0c2.5,0.4,4.1,4.4,3.5,8.6
		c-0.3,2.2-1.2,4.3-2.5,5.7c-0.2,0.2-0.4,0.4-0.7,0.7c-1.1-3.7-3-7.1-5.6-10C76.3,22.7,77,21.5,77.8,20.6z M15.3,27.7
		c-0.6-4.2,1-8.3,3.5-8.6c0.1,0,0.2,0,0.4,0c1.3,0,2.4,1,3,1.6c0.8,0.9,1.5,2.1,1.9,3.4c-2.6,2.9-4.5,6.3-5.6,10
		c-0.3-0.2-0.5-0.5-0.7-0.7C16.6,32,15.7,29.9,15.3,27.7z M57.7,74.6L56.3,83H52v-3c0-0.4-0.1-0.8-0.4-1.2c-0.4-0.5-1-0.8-1.6-0.8
		s-1.3,0.3-1.6,0.8C48.1,79.2,48,79.6,48,80v3h-4.3l-1.4-8.4L42,73c3.3,0,6.1-1.6,8-4c1.8,2.4,4.7,4,8,4L57.7,74.6z M46,55
		c0-0.3,0-0.5,0-0.8c2.3-1.6,5.6-1.6,7.9,0c0,0.3,0,0.5,0,0.8c0,2.6-1.6,4.8-4,5.6C47.6,59.8,46,57.6,46,55z M60.5,81.9l1.4-8.6
		c0-0.1,0-0.2,0-0.3h2c1.1,0,2-0.9,2-2c0-1.1-0.9-2-2-2h-6c-2.9,0-5.4-2.1-5.9-4.9c1.1-0.5,2.1-1.2,3-2c1.8-1.8,2.9-4.3,2.9-7.1
		c0-0.8-0.1-1.6-0.3-2.4c-0.1-0.4-0.3-0.8-0.7-1.1c-2-1.7-4.5-2.6-7-2.6s-5.1,0.9-7,2.6c-0.3,0.3-0.6,0.6-0.7,1.1
		C42.1,53.4,42,54.2,42,55c0,2.7,1.1,5.2,2.9,7.1c0.8,0.8,1.8,1.5,3,2c-0.5,2.8-3,4.9-5.9,4.9h-6c-1.1,0-2,0.9-2,2c0,1.1,0.9,2,2,2
		h2c0,0.1,0,0.2,0,0.3l1.4,8.6c-15.1-3.2-26.1-13.1-26.1-24.7c0-5.7,2.6-11,7.5-15.6c0.4-0.4,0.6-0.9,0.6-1.4C22,27.2,34.5,17,50,17
		s28,10.2,28.5,23.2c0,0.5,0.2,1,0.6,1.4c4.9,4.5,7.5,9.9,7.5,15.6C86.6,68.8,75.6,78.7,60.5,81.9z"/>
	<path d="M34.6,41.6c-0.1,0.1-0.2,0.2-0.2,0.3c-0.1,0.1-0.1,0.2-0.2,0.3c-0.1,0.1-0.1,0.2-0.1,0.4c0,0.1,0,0.3,0,0.4s0,0.3,0,0.4
		c0,0.1,0.1,0.2,0.1,0.4c0,0.1,0.1,0.2,0.2,0.3c0.1,0.1,0.1,0.2,0.2,0.3C35,44.8,35.5,45,36,45s1-0.2,1.4-0.6
		c0.1-0.1,0.2-0.2,0.2-0.3c0.1-0.1,0.1-0.2,0.2-0.3c0.1-0.1,0.1-0.2,0.1-0.4c0-0.1,0-0.3,0-0.4c0-0.5-0.2-1-0.6-1.4
		C36.7,40.8,35.3,40.8,34.6,41.6z"/>
	<path d="M62.6,41.6c-0.1,0.1-0.2,0.2-0.2,0.3c-0.1,0.1-0.1,0.2-0.2,0.3c-0.1,0.1-0.1,0.2-0.1,0.4c0,0.1,0,0.3,0,0.4s0,0.3,0,0.4
		c0,0.1,0.1,0.2,0.1,0.4c0,0.1,0.1,0.2,0.2,0.3c0.1,0.1,0.1,0.2,0.2,0.3C63,44.8,63.5,45,64,45s1-0.2,1.4-0.6
		c0.1-0.1,0.2-0.2,0.2-0.3c0.1-0.1,0.1-0.2,0.2-0.3c0.1-0.1,0.1-0.2,0.1-0.4c0-0.1,0-0.3,0-0.4c0-0.5-0.2-1-0.6-1.4
		C64.7,40.8,63.3,40.8,62.6,41.6z"/>
</g>
</svg>
